<?xml version="1.0" standalone="no"?><!DOCTYPE svg PUBLIC "-//W3C//DTD SVG 1.1//EN" "http://www.w3.org/Graphics/SVG/1.1/DTD/svg11.dtd"><svg class="icon" width="200px" height="200.00px" viewBox="0 0 1024 1024" version="1.1" xmlns="http://www.w3.org/2000/svg"><path d="M512 1024a512 512 0 1 1 512-512 512 512 0 0 1-512 512z m0-992a480 480 0 1 0 480 480A480 480 0 0 0 512 32z m192 624h-48v-32h48a32 32 0 0 0 32-32V400a32 32 0 0 0-32-32H320a32 32 0 0 0-32 32v192a32 32 0 0 0 32 32h32v32h-32a64 64 0 0 1-64-64V400a64 64 0 0 1 64-64h32v-16a64 64 0 0 1 64-64h192a64 64 0 0 1 64 64v16h32a64 64 0 0 1 64 64v192a64 64 0 0 1-64 64z m-64-336a32 32 0 0 0-32-32H416a32 32 0 0 0-32 32v16h256v-16z m-32 128a48 48 0 1 1 48 48 48 48 0 0 1-48-48z m48 16a16 16 0 1 0-16-16 16 16 0 0 0 16 16z m-240 96h176a32 32 0 0 1 32 32v144a32 32 0 0 1-32 32H416a32 32 0 0 1-32-32v-144a32 32 0 0 1 32-32z m0 176h176v-144H416v144z" fill="#707070" /></svg>